<svg version="1.1" id="Layer_1" xmlns="http://www.w3.org/2000/svg" xmlns:xlink="http://www.w3.org/1999/xlink" x="0px" y="0px"
	 width="100%" viewBox="0 0 114 72" enable-background="new 0 0 114 72" xml:space="preserve">
<path fill="#1563FF" opacity="1.000000" stroke="none"
	d="
M56.794762,5.039194 
	C65.868034,8.512377 68.671387,11.542747 67.841034,18.148104 
	C67.481773,21.005976 65.997345,24.229305 63.997665,26.291285 
	C51.593998,39.081413 38.949059,51.639668 26.275978,64.165398 
	C20.987793,69.392097 13.931799,69.473312 9.202448,64.691483 
	C4.597848,60.035786 4.690721,51.816422 9.476618,47.017765 
	C21.942186,34.518951 34.315037,21.922577 47.030396,9.682507 
	C49.428673,7.373876 53.238304,6.531404 56.794762,5.039194 
z"/>
<path fill="#EE0279" opacity="1.000000" stroke="none" 
	d="
M82.006241,24.514812 
	C90.919487,28.803537 92.717865,37.486492 86.175262,44.267506 
	C79.944275,50.725544 73.588593,57.068623 67.140503,63.310143 
	C62.124233,68.165710 55.428959,68.252800 50.338963,63.823452 
	C46.085136,60.121742 45.030361,52.529182 49.198612,47.836014 
	C56.133171,40.028175 63.464310,32.490871 71.327156,25.641777 
	C73.524010,23.728168 78.173416,24.630117 82.006241,24.514812 
z"/>
<path fill="#1563FF" opacity="1.000000" stroke="none" 
	d="
M89.185547,45.959160 
	C95.958916,43.356606 100.018974,44.202831 104.367592,48.844715 
	C107.876511,52.590279 107.728180,56.799294 105.938095,61.144989 
	C103.872917,66.158501 99.827347,67.931213 94.610367,68.047775 
	C89.339294,68.165573 86.358574,64.755760 84.171524,60.977066 
	C81.626755,56.580353 83.354767,52.178032 86.226532,48.336384 
	C86.901184,47.433891 87.935791,46.800472 89.185547,45.959160 
z"/>
</svg>