<svg version="1.1" id="Layer_1" xmlns="http://www.w3.org/2000/svg" x="0px" y="0px" width="100%"
    viewBox="0 0 200 200" enable-background="new 0 0 200 200" xml:space="preserve">
<path fill="#384F4B" opacity="1.000000" stroke="none" d="
M51.614044,110.350044
	C33.463287,72.439240 58.809273,32.259396 100.088127,32.885197
	C126.532883,33.286106 148.239975,54.366791 150.698715,82.035309
	C152.931610,107.162247 134.260941,132.007431 109.403816,136.986710
	C85.801643,141.714630 64.102386,131.799637 51.614044,110.350044
M133.805969,113.256187
	C142.631622,101.642921 145.247360,88.682648 141.931839,74.562462
	C137.034546,53.705742 116.407730,38.461693 95.734322,40.268147
	C72.523308,42.296333 54.306480,59.719681 52.989544,81.151062
	C51.710598,101.964203 62.479317,119.694603 81.077324,127.396820
	C99.438942,135.001144 119.538345,129.777481 133.805969,113.256187
z" />
    <path fill="#F1FAF9" opacity="1.000000" stroke="none" d="
M133.579437,113.533524
	C119.538345,129.777481 99.438942,135.001144 81.077324,127.396820
	C62.479317,119.694603 51.710598,101.964203 52.989544,81.151062
	C54.306480,59.719681 72.523308,42.296333 95.734322,40.268147
	C116.407730,38.461693 137.034546,53.705742 141.931839,74.562462
	C145.247360,88.682648 142.631622,101.642921 133.579437,113.533524
M94.154541,70.505234
	C94.154541,85.283562 94.154541,100.061897 94.154541,115.155487
	C91.119904,114.712761 88.735985,114.364967 86.395042,114.023445
	C84.693604,120.905571 84.729469,121.407295 91.040474,122.227264
	C95.750664,122.839249 100.671318,122.876495 105.374069,122.244980
	C111.737579,121.390450 112.105553,120.200974 109.625092,113.918701
	C107.297371,114.322144 104.932785,114.731987 102.437195,115.164528
	C102.437195,95.125671 102.437195,75.618935 102.437195,55.784676
	C105.575066,56.406864 108.254776,56.938210 111.091667,57.500721
	C112.024818,55.361847 112.809715,53.562786 113.759193,51.386486
	C103.184853,46.863205 93.097481,46.501598 82.473473,51.614433
	C83.592461,53.936253 84.501381,55.822193 85.359718,57.603176
	C88.402687,56.989799 91.042877,56.457615 94.152214,55.830864
	C94.152214,60.888603 94.152214,65.198807 94.154541,70.505234
M81.844688,115.894691
	C82.712631,105.715752 83.580574,95.536819 84.571915,83.910706
	C86.817215,87.987877 88.351044,90.773102 90.040489,93.840912
	C94.192612,77.684296 83.960823,66.435020 78.976654,53.049755
	C76.603485,54.806503 74.786888,56.151253 72.301727,57.990910
	C80.341660,66.949989 77.658012,77.365479 76.884285,87.539642
	C76.783554,88.864304 76.588280,90.181595 76.476906,91.505661
	C75.892159,98.457375 74.913673,105.415092 74.997650,112.359520
	C75.022095,114.380867 78.083984,116.374832 79.849350,118.293182
	C79.881905,118.328560 81.110718,117.263077 81.844688,115.894691
M111.965500,88.067833
	C112.966248,98.260681 113.966988,108.453529 115.022224,119.201408
	C118.395851,116.836006 122.412514,116.237175 121.760155,111.082916
	C120.695366,102.669891 119.811638,94.215416 119.341072,85.751205
	C118.916939,78.122017 116.468063,70.433861 120.966049,62.893734
	C124.355141,57.212482 123.861206,56.917828 117.636932,53.823502
	C107.305542,70.422791 103.801781,82.868233 106.332077,92.912926
	C107.963196,91.197517 109.807907,89.257492 111.965500,88.067833
M127.964325,108.308388
	C141.038467,91.752953 135.403442,67.753700 124.955185,60.928741
	C124.728783,64.670197 123.396217,68.279778 124.565186,70.661690
	C128.897629,79.489571 128.912979,88.085670 126.014305,97.276268
	C124.761459,101.248528 125.142090,105.735970 124.780701,109.989388
	C125.220955,110.048431 125.661209,110.107468 126.101463,110.166512
	C126.572807,109.721550 127.044151,109.276596 127.964325,108.308388
M64.653763,102.679344
	C66.400635,105.301414 68.147499,107.923485 69.894371,110.545555
	C70.566254,110.286255 71.238144,110.026955 71.910027,109.767654
	C71.105751,104.861069 70.705200,99.844574 69.406006,95.072731
	C67.262863,87.201103 67.114738,79.490303 71.157021,72.384094
	C73.726013,67.867889 72.281982,64.796585 69.398705,61.009315
	C59.634022,74.001762 58.001575,87.510178 64.653763,102.679344
z" />
    <path fill="#2EB697" opacity="1.000000" stroke="none" d="
M94.153381,70.007126 
	C94.152214,65.198807 94.152214,60.888603 94.152214,55.830864 
	C91.042877,56.457615 88.402687,56.989799 85.359718,57.603176 
	C84.501381,55.822193 83.592461,53.936253 82.473473,51.614433 
	C93.097481,46.501598 103.184853,46.863205 113.759193,51.386486 
	C112.809715,53.562786 112.024818,55.361847 111.091667,57.500721 
	C108.254776,56.938210 105.575066,56.406864 102.437195,55.784676 
	C102.437195,75.618935 102.437195,95.125671 102.437195,115.164528 
	C104.932785,114.731987 107.297371,114.322144 109.625092,113.918701 
	C112.105553,120.200974 111.737579,121.390450 105.374069,122.244980 
	C100.671318,122.876495 95.750664,122.839249 91.040474,122.227264 
	C84.729469,121.407295 84.693604,120.905571 86.395042,114.023445 
	C88.735985,114.364967 91.119904,114.712761 94.154541,115.155487 
	C94.154541,100.061897 94.154541,85.283562 94.153381,70.007126 
z" />
    <path fill="#3A514C" opacity="1.000000" stroke="none" d="
M81.813034,116.302963 
	C81.110718,117.263077 79.881905,118.328560 79.849350,118.293182 
	C78.083984,116.374832 75.022095,114.380867 74.997650,112.359520 
	C74.913673,105.415092 75.892159,98.457375 76.476906,91.505661 
	C76.588280,90.181595 76.783554,88.864304 76.884285,87.539642 
	C77.658012,77.365479 80.341660,66.949989 72.301727,57.990910 
	C74.786888,56.151253 76.603485,54.806503 78.976654,53.049755 
	C83.960823,66.435020 94.192612,77.684296 90.040489,93.840912 
	C88.351044,90.773102 86.817215,87.987877 84.571915,83.910706 
	C83.580574,95.536819 82.712631,105.715752 81.813034,116.302963 
z" />
    <path fill="#374F4A" opacity="1.000000" stroke="none" d="
M111.809059,87.692650 
	C109.807907,89.257492 107.963196,91.197517 106.332077,92.912926 
	C103.801781,82.868233 107.305542,70.422791 117.636932,53.823502 
	C123.861206,56.917828 124.355141,57.212482 120.966049,62.893734 
	C116.468063,70.433861 118.916939,78.122017 119.341072,85.751205 
	C119.811638,94.215416 120.695366,102.669891 121.760155,111.082916 
	C122.412514,116.237175 118.395851,116.836006 115.022224,119.201408 
	C113.966988,108.453529 112.966248,98.260681 111.809059,87.692650 
z" />
    <path fill="#30B798" opacity="1.000000" stroke="none" d="
M127.739914,108.570007 
	C127.044151,109.276596 126.572807,109.721550 126.101463,110.166512 
	C125.661209,110.107468 125.220955,110.048431 124.780701,109.989388 
	C125.142090,105.735970 124.761459,101.248528 126.014305,97.276268 
	C128.912979,88.085670 128.897629,79.489571 124.565186,70.661690 
	C123.396217,68.279778 124.728783,64.670197 124.955185,60.928741 
	C135.403442,67.753700 141.038467,91.752953 127.739914,108.570007 
z" />
    <path fill="#2EB597" opacity="1.000000" stroke="none" d="
M64.461693,102.355087 
	C58.001575,87.510178 59.634022,74.001762 69.398705,61.009315 
	C72.281982,64.796585 73.726013,67.867889 71.157021,72.384094 
	C67.114738,79.490303 67.262863,87.201103 69.406006,95.072731 
	C70.705200,99.844574 71.105751,104.861069 71.910027,109.767654 
	C71.238144,110.026955 70.566254,110.286255 69.894371,110.545555 
	C68.147499,107.923485 66.400635,105.301414 64.461693,102.355087 
z" />
</svg>