<svg version="1.1" id="Layer_1" xmlns="http://www.w3.org/2000/svg" xmlns:xlink="http://www.w3.org/1999/xlink" x="0px" y="0px"
	 width="100%" viewBox="0 0 180 180" enable-background="new 0 0 180 180" xml:space="preserve">
<path fill="#070707" opacity="1.000000" stroke="none" 
	d="
M87.056503,49.320618 
	C87.316101,49.105171 87.575691,48.889725 88.513374,48.758476 
	C91.152130,49.216335 93.112793,49.589993 95.073456,49.963654 
	C95.863159,50.332752 96.652855,50.701851 97.753601,51.620522 
	C99.450378,52.742302 100.836113,53.314522 102.221848,53.886742 
	C103.323814,54.497215 104.425789,55.107689 105.784637,56.307907 
	C107.047043,57.255497 108.052551,57.613346 109.058067,57.971195 
	C109.844505,58.338837 110.630943,58.706482 111.738358,59.589745 
	C112.775673,60.368217 113.492012,60.631077 114.208359,60.893932 
	C114.973358,61.245678 115.738365,61.597420 116.788818,62.509933 
	C118.432228,63.688988 119.790184,64.307281 121.148148,64.925575 
	C121.148148,64.925575 121.629311,64.980843 121.845161,65.487862 
	C122.808868,66.277458 123.556725,66.560036 124.304581,66.842613 
	C128.489944,67.810219 129.933380,70.202934 129.784668,74.675537 
	C129.411057,85.910797 129.445511,97.173141 129.774139,108.411224 
	C129.895416,112.558807 129.179810,115.397743 125.029396,116.951439 
	C123.208900,117.632942 121.641357,118.990173 119.322128,120.013397 
	C118.093460,120.436325 117.501633,120.886429 116.909805,121.336533 
	C115.352333,122.277054 113.794853,123.217575 111.555824,124.152588 
	C110.229156,124.725105 109.584038,125.303123 108.938919,125.881149 
	C108.938919,125.881142 108.954750,125.966118 108.584358,125.921432 
	C107.442383,126.486839 106.670792,127.096931 105.899200,127.707016 
	C105.269638,128.165253 104.640076,128.623474 103.392220,129.067551 
	C102.161934,129.577087 101.549942,130.100784 100.937943,130.624481 
	C98.910011,131.726456 96.882080,132.828445 94.201347,133.967972 
	C93.012695,134.558990 92.476837,135.112457 91.940964,135.665924 
	C88.514557,134.397629 85.088142,133.129333 81.291519,131.330963 
	C80.203018,130.573776 79.484749,130.346664 78.766472,130.119553 
	C77.649139,129.524841 76.531799,128.930115 75.181671,127.720589 
	C74.141884,126.822220 73.334877,126.538658 72.527878,126.255096 
	C70.550407,125.171455 68.572929,124.087807 66.243408,122.446671 
	C65.073578,121.700264 64.255798,121.511353 63.438019,121.322441 
	C63.102287,121.215988 62.766556,121.109535 62.178017,120.483398 
	C61.162022,119.705872 60.398834,119.448013 59.635643,119.190170 
	C58.914833,118.795525 58.194023,118.400879 57.219345,117.450226 
	C56.225304,116.639984 55.485138,116.385765 54.744976,116.131538 
	C54.744976,116.131538 54.318478,116.085388 54.165859,115.624214 
	C53.206291,114.744118 52.399342,114.325188 51.592392,113.906265 
	C51.437149,99.778587 51.160378,85.649597 51.312172,71.525215 
	C51.327572,70.092033 53.923805,68.686584 55.851166,67.441589 
	C56.932686,67.107101 57.485409,66.599297 58.038136,66.091484 
	C62.618286,63.330620 67.198441,60.569752 72.457268,57.838921 
	C73.793663,57.329323 74.451378,56.789688 75.109093,56.250053 
	C75.109093,56.250053 75.118759,56.089027 75.516571,56.129303 
	C76.627945,55.546162 77.341507,54.922749 78.055077,54.299332 
	C78.055077,54.299332 78.275406,53.916832 78.832687,53.945206 
	C80.620697,53.166077 81.851433,52.358570 83.082169,51.551064 
	C83.376747,51.322048 83.671326,51.093033 84.578773,50.891308 
	C85.813263,50.385941 86.434883,49.853279 87.056503,49.320618 
M101.392494,105.869011 
	C91.322578,115.274963 82.384148,109.060715 73.504211,103.681969 
	C69.074677,109.029221 69.074623,109.343529 74.816620,112.475822 
	C82.057983,116.426025 89.715828,117.975395 97.909943,116.114105 
	C105.642334,114.357697 109.860634,109.851456 110.019020,103.057098 
	C110.174492,96.387489 105.609802,91.006752 98.250465,89.211792 
	C94.017731,88.179428 89.580933,87.646812 85.612465,85.988373 
	C83.043182,84.914650 79.673805,82.413452 79.372345,80.185333 
	C79.064537,77.910225 81.807999,74.958748 83.736397,72.760109 
	C84.647331,71.721527 86.747276,71.541389 88.355362,71.331474 
	C94.460526,70.534554 99.761108,72.485207 104.184303,76.687935 
	C108.528908,71.088745 108.493820,70.744743 102.752235,67.755630 
	C96.396278,64.446671 89.728104,64.008163 82.909599,66.014496 
	C76.385849,67.934105 72.292343,73.071945 72.064415,79.399895 
	C71.843620,85.529846 75.240028,89.856361 82.443108,92.190826 
	C87.650894,93.878632 93.025726,95.070000 98.183037,96.888420 
	C102.078293,98.261856 104.261658,100.929337 101.392494,105.869011 
z"/>
<path fill="#201F1F" opacity="1.000000" stroke="none" 
	d="
M42.311466,119.475021 
	C56.992912,128.276245 71.713036,137.014542 86.295509,145.976807 
	C87.741051,146.865219 88.346031,149.121353 89.341141,150.742676 
	C87.331154,150.661530 84.906860,151.287323 83.375374,150.389740 
	C68.316811,141.564163 53.406715,132.485275 38.334999,122.935287 
	C39.580837,121.419868 40.946152,120.447449 42.311466,119.475021 
z"/>
<path fill="#211F1F" opacity="1.000000" stroke="none" 
	d="
M138.917603,63.844086 
	C125.749176,55.850796 112.578514,47.861179 99.415054,39.859711 
	C97.709053,38.822716 95.805977,37.958580 94.428833,36.580147 
	C93.340607,35.490906 92.919914,33.734756 92.202774,32.274780 
	C93.943222,32.223965 96.033379,31.521221 97.363785,32.234852 
	C103.214134,35.372978 108.860352,38.894802 114.551933,42.325054 
	C122.804214,47.298618 131.078293,52.239902 139.212418,57.400879 
	C140.254715,58.062206 140.514130,59.957386 140.919861,61.865936 
	C140.108200,62.915295 139.512894,63.379692 138.917603,63.844086 
z"/>
<path fill="#D06E6D" opacity="1.000000" stroke="none" 
	d="
M42.195053,119.064133 
	C40.946152,120.447449 39.580837,121.419868 38.078560,122.722900 
	C37.064785,120.932297 35.463818,118.823875 35.426090,116.687843 
	C35.132996,100.093353 35.141258,83.493530 35.450851,66.315460 
	C37.483677,65.733818 39.121952,65.732079 40.760231,65.730347 
	C40.886467,78.772522 40.944088,91.815910 41.175934,104.856209 
	C41.257771,109.459114 41.765411,114.054451 42.195053,119.064133 
z"/>
<path fill="#DA9395" opacity="1.000000" stroke="none" 
	d="
M138.952057,64.320557 
	C139.512894,63.379692 140.108200,62.915295 140.885666,62.207031 
	C144.067688,61.728954 144.064880,63.852650 144.083420,65.877785 
	C144.127396,70.678444 144.063934,75.480537 144.145172,80.280334 
	C144.346649,92.182480 144.604828,104.083649 144.511002,116.505096 
	C142.849808,117.078232 141.517838,117.131493 140.185867,117.184753 
	C139.821442,115.106537 139.157211,113.030731 139.140472,110.949722 
	C139.016693,95.566071 139.021896,80.181389 138.952057,64.320557 
z"/>
<path fill="#261F1F" opacity="1.000000" stroke="none" 
	d="
M40.859932,65.327141 
	C39.121952,65.732079 37.483677,65.733818 35.447762,65.843796 
	C28.915075,65.952042 22.780029,65.952042 16.379807,65.952042 
	C16.379807,63.784031 16.379807,62.228386 16.379807,60.185200 
	C23.877726,60.185200 31.176275,60.144440 38.474041,60.202560 
	C42.069515,60.231197 40.989326,62.894245 40.859932,65.327141 
z"/>
<path fill="#1E1A1B" opacity="1.000000" stroke="none" 
	d="
M140.150253,117.614944 
	C141.517838,117.131493 142.849808,117.078232 144.576263,116.962006 
	C151.121689,116.956169 157.274475,117.124222 163.422806,117.022644 
	C166.403595,116.973404 167.227997,118.095421 166.361786,121.362976 
	C158.400757,121.362976 150.459152,121.461555 142.528076,121.217651 
	C141.691879,121.191933 140.917633,119.151077 140.150253,117.614944 
z"/>
<path fill="#2A2A2A" opacity="1.000000" stroke="none" 
	d="
M94.933701,49.659897 
	C93.112793,49.589993 91.152130,49.216335 88.767761,48.719917 
	C90.494019,48.850155 92.643990,49.103149 94.933701,49.659897 
z"/>
<path fill="#2A2A2A" opacity="1.000000" stroke="none" 
	d="
M82.761032,51.555840 
	C81.851433,52.358570 80.620697,53.166077 79.050987,53.912701 
	C79.954643,53.088085 81.197266,52.324352 82.761032,51.555840 
z"/>
<path fill="#2A2A2A" opacity="1.000000" stroke="none" 
	d="
M121.012665,64.635361 
	C119.790184,64.307281 118.432228,63.688988 117.000008,62.752174 
	C118.242897,63.070812 119.560036,63.707977 121.012665,64.635361 
z"/>
<path fill="#2A2A2A" opacity="1.000000" stroke="none" 
	d="
M102.106117,53.585205 
	C100.836113,53.314522 99.450378,52.742302 97.989212,51.850876 
	C99.272644,52.115665 100.631516,52.699665 102.106117,53.585205 
z"/>
<path fill="#2A2A2A" opacity="1.000000" stroke="none" 
	d="
M108.903336,57.699181 
	C108.052551,57.613346 107.047043,57.255497 105.979614,56.558846 
	C106.861336,56.622417 107.804970,57.024792 108.903336,57.699181 
z"/>
<path fill="#2A2A2A" opacity="1.000000" stroke="none" 
	d="
M106.205200,127.701324 
	C106.670792,127.096931 107.442383,126.486839 108.544708,125.904221 
	C108.087372,126.519676 107.299286,127.107651 106.205200,127.701324 
z"/>
<path fill="#2A2A2A" opacity="1.000000" stroke="none" 
	d="
M77.756912,54.289173 
	C77.341507,54.922749 76.627945,55.546162 75.594749,56.149139 
	C76.002998,55.512135 76.730881,54.895576 77.756912,54.289173 
z"/>
<path fill="#2A2A2A" opacity="1.000000" stroke="none" 
	d="
M51.602867,114.191002 
	C52.399342,114.325188 53.206291,114.744118 54.030159,115.458099 
	C53.235828,115.327347 52.424583,114.901543 51.602867,114.191002 
z"/>
<path fill="#2A2A2A" opacity="1.000000" stroke="none" 
	d="
M101.241760,130.693604 
	C101.549942,130.100784 102.161934,129.577087 103.104218,129.140167 
	C102.804871,129.738892 102.175232,130.250824 101.241760,130.693604 
z"/>
<path fill="#2A2A2A" opacity="1.000000" stroke="none" 
	d="
M78.868019,130.398254 
	C79.484749,130.346664 80.203018,130.573776 81.007523,131.090668 
	C80.385689,131.145950 79.677628,130.911453 78.868019,130.398254 
z"/>
<path fill="#2A2A2A" opacity="1.000000" stroke="none" 
	d="
M72.669739,126.543823 
	C73.334877,126.538658 74.141884,126.822220 75.014053,127.449715 
	C74.323357,127.473282 73.567482,127.152908 72.669739,126.543823 
z"/>
<path fill="#2A2A2A" opacity="1.000000" stroke="none" 
	d="
M109.260727,125.842735 
	C109.584038,125.303123 110.229156,124.725105 111.229759,124.239883 
	C110.917671,124.823219 110.250099,125.313774 109.260727,125.842735 
z"/>
<path fill="#2A2A2A" opacity="1.000000" stroke="none" 
	d="
M63.598076,121.584976 
	C64.255798,121.511353 65.073578,121.700264 65.983765,122.218811 
	C65.303490,122.314804 64.530815,122.081161 63.598076,121.584976 
z"/>
<path fill="#2A2A2A" opacity="1.000000" stroke="none" 
	d="
M92.236328,135.663376 
	C92.476837,135.112457 93.012695,134.558990 93.868790,134.050629 
	C93.636581,134.617432 93.084129,135.139130 92.236328,135.663376 
z"/>
<path fill="#2A2A2A" opacity="1.000000" stroke="none" 
	d="
M117.196213,121.358711 
	C117.501633,120.886429 118.093460,120.436325 118.982834,120.066086 
	C118.681122,120.557594 118.081879,120.969246 117.196213,121.358711 
z"/>
<path fill="#2A2A2A" opacity="1.000000" stroke="none" 
	d="
M59.777264,119.454498 
	C60.398834,119.448013 61.162022,119.705872 61.996902,120.286270 
	C61.352024,120.312157 60.635452,120.015495 59.777264,119.454498 
z"/>
<path fill="#2A2A2A" opacity="1.000000" stroke="none" 
	d="
M54.852791,116.409897 
	C55.485138,116.385765 56.225304,116.639984 57.023468,117.207855 
	C56.374516,117.243759 55.667561,116.966011 54.852791,116.409897 
z"/>
<path fill="#2A2A2A" opacity="1.000000" stroke="none" 
	d="
M57.731361,66.099495 
	C57.485409,66.599297 56.932686,67.107101 56.214287,67.396164 
	C56.507275,66.820770 56.965935,66.464142 57.731361,66.099495 
z"/>
<path fill="#2A2A2A" opacity="1.000000" stroke="none" 
	d="
M124.194893,66.558914 
	C123.556725,66.560036 122.808868,66.277458 121.998459,65.675331 
	C122.652336,65.662262 123.368767,65.968735 124.194893,66.558914 
z"/>
<path fill="#2A2A2A" opacity="1.000000" stroke="none" 
	d="
M114.112534,60.616924 
	C113.492012,60.631077 112.775673,60.368217 111.988441,59.805668 
	C112.617279,59.783955 113.316994,60.061935 114.112534,60.616924 
z"/>
<path fill="#2A2A2A" opacity="1.000000" stroke="none" 
	d="
M74.790817,56.260269 
	C74.451378,56.789688 73.793663,57.329323 72.788513,57.777115 
	C73.118233,57.213673 73.795387,56.742081 74.790817,56.260269 
z"/>
<path fill="#2A2A2A" opacity="1.000000" stroke="none" 
	d="
M86.748413,49.319565 
	C86.434883,49.853279 85.813263,50.385941 84.857269,50.833652 
	C85.162041,50.271973 85.801186,49.795242 86.748413,49.319565 
z"/>
<path fill="#E8E8E8" opacity="1.000000" stroke="none" 
	d="
M101.669479,105.600021 
	C104.261658,100.929337 102.078293,98.261856 98.183037,96.888420 
	C93.025726,95.070000 87.650894,93.878632 82.443108,92.190826 
	C75.240028,89.856361 71.843620,85.529846 72.064415,79.399895 
	C72.292343,73.071945 76.385849,67.934105 82.909599,66.014496 
	C89.728104,64.008163 96.396278,64.446671 102.752235,67.755630 
	C108.493820,70.744743 108.528908,71.088745 104.184303,76.687935 
	C99.761108,72.485207 94.460526,70.534554 88.355362,71.331474 
	C86.747276,71.541389 84.647331,71.721527 83.736397,72.760109 
	C81.807999,74.958748 79.064537,77.910225 79.372345,80.185333 
	C79.673805,82.413452 83.043182,84.914650 85.612465,85.988373 
	C89.580933,87.646812 94.017731,88.179428 98.250465,89.211792 
	C105.609802,91.006752 110.174492,96.387489 110.019020,103.057098 
	C109.860634,109.851456 105.642334,114.357697 97.909943,116.114105 
	C89.715828,117.975395 82.057983,116.426025 74.816620,112.475822 
	C69.074623,109.343529 69.074677,109.029221 73.504211,103.681969 
	C82.384148,109.060715 91.322578,115.274963 101.669479,105.600021 
z"/>
</svg>