<?xml version="1.0" encoding="UTF-8"?>
<svg version="1.1" xmlns="http://www.w3.org/2000/svg" width="200" height="200">

    <path
        d="M0 0 C1.65 0 3.3 0 5 0 C5 1.98 5 3.96 5 6 C3.02 6.99 3.02 6.99 1 8 C1.33 9.65 1.66 11.3 2 13 C2.80824219 12.12214844 3.61648437 11.24429688 4.44921875 10.33984375 C5.52783195 9.20495508 6.60730421 8.07088245 7.6875 6.9375 C8.21794922 6.35677734 8.74839844 5.77605469 9.29492188 5.17773438 C10.80393925 3.61317035 12.20000672 2.22038287 14 1 C16.89453125 1.12890625 16.89453125 1.12890625 19 2 C19.79248047 3.68359375 19.79248047 3.68359375 20 6 C18.10986328 8.41015625 18.10986328 8.41015625 15.3203125 11.0625 C14.83295624 11.5356665 14.34559998 12.00883301 13.84347534 12.49633789 C12.28200795 14.00990559 10.70509155 15.5059031 9.125 17 C7.55380716 18.4956871 5.98655351 19.99485856 4.427948 21.50366211 C3.01024181 22.87470769 1.57986387 24.23261384 0.14892578 25.58984375 C-1.89034106 27.87701056 -2.66102331 29.01076314 -3 32 C1.89501342 27.94780064 6.43207117 23.6198597 10.85546875 19.06640625 C11.36917023 18.54009613 11.8828717 18.01378601 12.41213989 17.4715271 C14.55167904 15.27786954 16.68932325 13.08288797 18.80834961 10.86938477 C20.37520164 9.23607029 21.95740403 7.61903318 23.54296875 6.00390625 C24.01703659 5.50089493 24.49110443 4.99788361 24.97953796 4.47962952 C27.28112487 2.15977706 28.53804003 1.05085252 31.84106445 0.68725586 C32.55351318 0.79046143 33.26596191 0.89366699 34 1 C34.46654311 4.00966048 34.59216516 6.14465033 32.81347656 8.71386719 C31.14779561 10.51485268 29.41909912 12.2020215 27.625 13.875 C27.02171875 14.46796875 26.4184375 15.0609375 25.796875 15.671875 C21.30918779 20 21.30918779 20 19 20 C18.77183594 20.56589844 18.54367188 21.13179687 18.30859375 21.71484375 C16.64681917 24.61674861 14.58443031 26.37386444 12.0625 28.5625 C6.4546324 33.02213508 6.4546324 33.02213508 3 39 C9.29824632 33.73003879 15.05863813 28.01120971 20.80688477 22.15600586 C21.43393311 21.52057861 22.06098145 20.88515137 22.70703125 20.23046875 C23.2688208 19.65707764 23.83061035 19.08368652 24.40942383 18.49291992 C26 17 26 17 29 15 C31.6875 15.375 31.6875 15.375 34 16 C33.67566492 21.35152885 30.50295176 24.28280043 27 28 C28.04800781 27.96519531 28.04800781 27.96519531 29.1171875 27.9296875 C30.48230469 27.90261719 30.48230469 27.90261719 31.875 27.875 C33.23238281 27.84019531 33.23238281 27.84019531 34.6171875 27.8046875 C37 28 37 28 39 30 C39.19849071 32.54535141 39.27851775 34.95716759 39.25 37.5 C39.26160156 38.53447266 39.26160156 38.53447266 39.2734375 39.58984375 C39.25333293 44.74666707 39.25333293 44.74666707 37 47 C34.06546739 46.63318342 33.13562754 46.13562754 31 44 C30.49210937 44.40992188 29.98421875 44.81984375 29.4609375 45.2421875 C28.77257813 45.78101563 28.08421875 46.31984375 27.375 46.875 C26.70210937 47.40867188 26.02921875 47.94234375 25.3359375 48.4921875 C18.8058152 52.70728316 11.53007629 52.98333937 4 52 C-4.66198886 48.84473259 -10.32437554 42.23491741 -14.4375 34.1875 C-15.67998944 27.14672651 -15.80843559 20.61198616 -13 14 C-12.83242243 10.79129767 -12.83242243 10.79129767 -13 8 C-9.14243493 5.84694043 -6.44870215 4.60746746 -2 5 C-1.34 3.35 -0.68 1.7 0 0 Z "
        fill="#CD080A" transform="translate(23,73)" />
    <path
        d="M0 0 C0.68553955 0.12793945 1.3710791 0.25587891 2.07739258 0.38769531 C2.54393569 3.39735579 2.66955773 5.53234564 0.89086914 8.1015625 C-0.77481181 9.90254799 -2.5035083 11.58971681 -4.29760742 13.26269531 C-4.90088867 13.85566406 -5.50416992 14.44863281 -6.12573242 15.05957031 C-10.61341963 19.38769531 -10.61341963 19.38769531 -12.92260742 19.38769531 C-13.15334961 19.95488281 -13.3840918 20.52207031 -13.62182617 21.10644531 C-15.25596736 23.97232655 -17.25570626 25.71682533 -19.73510742 27.88769531 C-20.58717773 28.64050781 -21.43924805 29.39332031 -22.31713867 30.16894531 C-24.81344071 32.29473176 -27.34987879 34.35537826 -29.92260742 36.38769531 C-31.24260742 35.39769531 -32.56260742 34.40769531 -33.92260742 33.38769531 C-32.63503984 30.56818755 -31.27826156 28.48343679 -29.11279297 26.27148438 C-28.54848068 25.69118469 -27.9841684 25.11088501 -27.40275574 24.51300049 C-26.79442398 23.89930603 -26.18609222 23.28561157 -25.55932617 22.65332031 C-24.93032913 22.0152948 -24.30133209 21.37726929 -23.65327454 20.71990967 C-22.32367266 19.37582438 -20.99126197 18.03451263 -19.65625 16.69580078 C-17.61556828 14.6431881 -15.59428553 12.57266715 -13.57299805 10.50097656 C-12.2779273 9.19644529 -10.98174006 7.89302125 -9.68432617 6.59082031 C-9.08206711 5.96902893 -8.47980804 5.34723755 -7.85929871 4.706604 C-3.5826456 0.47525196 -3.5826456 0.47525196 0 0 Z "
        fill="#123177" transform="translate(54.922607421875,73.6123046875)" />

    <path
        d="M0 0 C1.65 0 3.3 0 5 0 C5 1.98 5 3.96 5 6 C3.02 6.99 3.02 6.99 1 8 C1.33 9.65 1.66 11.3 2 13 C2.80824219 12.12214844 3.61648437 11.24429688 4.44921875 10.33984375 C5.52783195 9.20495508 6.60730421 8.07088245 7.6875 6.9375 C8.21794922 6.35677734 8.74839844 5.77605469 9.29492188 5.17773438 C10.80393925 3.61317035 12.20000672 2.22038287 14 1 C16.89453125 1.12890625 16.89453125 1.12890625 19 2 C19.78100586 3.68847656 19.78100586 3.68847656 20 6 C18.18579102 8.38183594 18.18579102 8.38183594 15.50390625 10.984375 C15.03637436 11.44483215 14.56884247 11.90528931 14.08714294 12.37969971 C12.59024181 13.84859761 11.07690962 15.2991807 9.5625 16.75 C8.5450932 17.74233158 7.52880197 18.73580829 6.51367188 19.73046875 C4.02192521 22.16706933 1.51514503 24.58753329 -1 27 C-1.66 26.67 -2.32 26.34 -3 26 C-3.24682708 22.46214519 -3.37825753 20.56738629 -1.375 17.5625 C0.40820748 14.90155999 0.40820748 14.90155999 -0.8125 11.1875 C-1.204375 10.135625 -1.59625 9.08375 -2 8 C-7.3086849 8.58174845 -7.3086849 8.58174845 -12 11 C-12.33 10.01 -12.66 9.02 -13 8 C-9.14243493 5.84694043 -6.44870215 4.60746746 -2 5 C-1.34 3.35 -0.68 1.7 0 0 Z "
        fill="#15347D" transform="translate(23,73)" />
    <path
        d="M0 0 C1.32 0 2.64 0 4 0 C4.99 4.95 5.98 9.9 7 15 C8.65 10.05 10.3 5.1 12 0 C13.32 0 14.64 0 16 0 C17.32 4.95 18.64 9.9 20 15 C21.32 10.05 22.64 5.1 24 0 C24.99 0 25.98 0 27 0 C25.89644911 7.55607786 24.40656211 14.74822618 22 22 C20.68 22 19.36 22 18 22 C17.80664062 21.08476563 17.61328125 20.16953125 17.4140625 19.2265625 C17.15367188 18.03804687 16.89328125 16.84953125 16.625 15.625 C16.36976562 14.44164063 16.11453125 13.25828125 15.8515625 12.0390625 C15.24476035 8.91803033 15.24476035 8.91803033 13 7 C11.68 11.95 10.36 16.9 9 22 C7.68 22 6.36 22 5 22 C4.16285091 18.70929159 3.33093104 15.41728353 2.5 12.125 C2.14228516 10.71927734 2.14228516 10.71927734 1.77734375 9.28515625 C1.55175781 8.38925781 1.32617188 7.49335937 1.09375 6.5703125 C0.88427734 5.74289551 0.67480469 4.91547852 0.45898438 4.06298828 C0 2 0 2 0 0 Z "
        fill="#3B5482" transform="translate(65,100)" />
    <path
        d="M0 0 C0.763125 0.20625 1.52625 0.4125 2.3125 0.625 C1.99578719 5.85076133 -0.89815608 9.26173063 -4.6875 12.625 C-7.5625 13.5625 -7.5625 13.5625 -9.6875 13.625 C-9.584375 14.388125 -9.48125 15.15125 -9.375 15.9375 C-9.478125 16.824375 -9.58125 17.71125 -9.6875 18.625 C-11.9375 20.1875 -11.9375 20.1875 -14.6875 21.625 C-15.326875 22.346875 -15.96625 23.06875 -16.625 23.8125 C-18.6875 25.625 -18.6875 25.625 -21.8125 26.0625 C-22.76125 25.918125 -23.71 25.77375 -24.6875 25.625 C-25.3475 24.635 -26.0075 23.645 -26.6875 22.625 C-23.75493129 19.66767906 -20.81906662 16.71368179 -17.88012695 13.76269531 C-16.88117099 12.75871622 -15.88311513 11.75384068 -14.88598633 10.74804688 C-13.45110007 9.30100662 -12.01298866 7.85724009 -10.57421875 6.4140625 C-9.71014404 5.54475098 -8.84606934 4.67543945 -7.95581055 3.77978516 C-3.46755073 -0.48384429 -3.46755073 -0.48384429 0 0 Z "
        fill="#153477" transform="translate(54.6875,88.375)" />

    <path
        d="M0 0 C10 0 10 0 12.625 1.5625 C14.53421825 4.94702327 14.47071274 7.16705339 14 11 C12.9375 13.9375 12.9375 13.9375 11 16 C7.57255771 16.3607834 5.11877956 16.55938978 2 15 C2 17.31 2 19.62 2 22 C1.34 22 0.68 22 0 22 C0 14.74 0 7.48 0 0 Z "
        fill="#2C4473" transform="translate(148,105)" />

    <path
        d="M0 0 C5.28 0 10.56 0 16 0 C16 0.66 16 1.32 16 2 C11.71 2 7.42 2 3 2 C3 4.31 3 6.62 3 9 C6.96 9 10.92 9 15 9 C15 9.99 15 10.98 15 12 C11.04 12 7.08 12 3 12 C3 14.31 3 16.62 3 19 C7.29 19 11.58 19 16 19 C16 19.99 16 20.98 16 22 C10.72 22 5.44 22 0 22 C0 14.74 0 7.48 0 0 Z "
        fill="#2C4473" transform="translate(107,100)" />

    <path
        d="M0 0 C2.4375 0.375 2.4375 0.375 5 1 C6.87756969 4.75513938 6.5164189 8.91068291 6 13 C3.60168949 19.2871598 -1.52528959 24.24497994 -7 28 C-9.24609375 28.69140625 -9.24609375 28.69140625 -11 29 C-9.625 27 -9.625 27 -8 25 C-7.34 25 -6.68 25 -6 25 C-8.06007659 21.39486597 -10.3513141 18.19668988 -13 15 C-11.5629191 14.94577053 -10.12524538 14.90710277 -8.6875 14.875 C-7.88699219 14.85179688 -7.08648437 14.82859375 -6.26171875 14.8046875 C-4 15 -4 15 -1 17 C2.02341105 12.08695705 2.87278382 7.66742738 2 2 C1.34 1.34 0.68 0.68 0 0 Z "
        fill="#223E73" transform="translate(136,91)" />

    <path
        d="M0 0 C2.875 0.9375 2.875 0.9375 5.875 2.9375 C6.0625 6.0625 6.0625 6.0625 5.875 8.9375 C2.245 8.9375 -1.385 8.9375 -5.125 8.9375 C-4.465 10.5875 -3.805 12.2375 -3.125 13.9375 C-1.145 13.9375 0.835 13.9375 2.875 13.9375 C2.875 13.2775 2.875 12.6175 2.875 11.9375 C3.865 11.9375 4.855 11.9375 5.875 11.9375 C4.125 15.8125 4.125 15.8125 1.875 16.9375 C-1.62837981 17.31830215 -3.48778626 17.33995078 -6.5 15.4375 C-8.36677391 12.56554014 -8.76000985 10.33518143 -8.57421875 6.9140625 C-7.50108632 2.19227979 -4.7262406 -0.09452481 0 0 Z "
        fill="#42567F" transform="translate(99.125,105.0625)" />

    <path
        d="M0 0 C0 0.99 0 1.98 0 3 C0.45072474 7.35700582 3.19598359 9.83649431 6 13 C4.58344207 13.0272415 3.16672955 13.04650467 1.75 13.0625 C0.56664062 13.07990234 0.56664062 13.07990234 -0.640625 13.09765625 C-3 13 -3 13 -5.00390625 12.34375 C-7.88252462 11.84801924 -9.21256567 12.96688685 -11.6875 14.4375 C-16.79589134 17.18525285 -20.26498651 17.46250109 -26 17 C-26 16.67 -26 16.34 -26 16 C-25.154375 15.78085938 -24.30875 15.56171875 -23.4375 15.3359375 C-13.03276552 12.42734127 -6.52546578 8.56467384 0 0 Z "
        fill="#1E3975" transform="translate(141,108)" />

    <path
        d="M0 0 C1.32 0.33 2.64 0.66 4 1 C4.33 0.67 4.66 0.34 5 0 C7.9375 -0.1875 7.9375 -0.1875 11 0 C13 2 13 2 13.1953125 5.2578125 C13.16050781 7.17207031 13.16050781 7.17207031 13.125 9.125 C13.10695312 10.40632813 13.08890625 11.68765625 13.0703125 13.0078125 C13.04710937 13.99523437 13.02390625 14.98265625 13 16 C12.34 16 11.68 16 11 16 C11 11.71 11 7.42 11 3 C9.02 3 7.04 3 5 3 C3.18884044 4.81115956 3.61800552 7.61278227 3.4375 10.0625 C3.31181641 11.71958984 3.31181641 11.71958984 3.18359375 13.41015625 C3.12300781 14.26480469 3.06242188 15.11945313 3 16 C2.01 16 1.02 16 0 16 C0 10.72 0 5.44 0 0 Z "
        fill="#2A406C" transform="translate(179,105)" />

    <path
        d="M0 0 C0.33 0.66 0.66 1.32 1 2 C1.66 2 2.32 2 3 2 C2.93489583 3.98567708 2.86979167 5.97135417 2.8046875 7.95703125 C2.86745538 10.31359719 2.86745538 10.31359719 5 13 C7.05003955 14.19232613 7.05003955 14.19232613 9 15 C6.69 14.67 4.38 14.34 2 14 C2 16.31 2 18.62 2 21 C1.34 21 0.68 21 0 21 C0 14.07 0 7.14 0 0 Z "
        fill="#163067" transform="translate(148,106)" />

    <path
        d="M0 0 C1.91015625 0.23046875 1.91015625 0.23046875 3.91015625 2.23046875 C4.10546875 5.26953125 4.10546875 5.26953125 4.03515625 8.85546875 C4.01710937 10.04398438 3.9990625 11.2325 3.98046875 12.45703125 C3.95726562 13.37226562 3.9340625 14.2875 3.91015625 15.23046875 C3.25015625 14.90046875 2.59015625 14.57046875 1.91015625 14.23046875 C1.91015625 10.27046875 1.91015625 6.31046875 1.91015625 2.23046875 C-1.06049884 2.57274447 -1.06049884 2.57274447 -4.08984375 3.23046875 C-4.41984375 3.89046875 -4.74984375 4.55046875 -5.08984375 5.23046875 C-6.07984375 5.23046875 -7.06984375 5.23046875 -8.08984375 5.23046875 C-6.84682804 -0.27431511 -5.68834769 0.11356048 0 0 Z "
        fill="#102A61" transform="translate(172.08984375,104.76953125)" />

    <path
        d="M0 0 C-0.33 0.66 -0.66 1.32 -1 2 C-3.5625 2.625 -3.5625 2.625 -6 3 C-6 4.32 -6 5.64 -6 7 C-5.01 7.66 -4.02 8.32 -3 9 C-5.375 9.125 -5.375 9.125 -8 9 C-10 7 -10 7 -10.3125 4.5 C-10.209375 3.675 -10.10625 2.85 -10 2 C-6.3558226 -0.4294516 -4.28758728 -0.16179575 0 0 Z "
        fill="#243E6A" transform="translate(173,112)" />
    <!--<path d="M0 0 C1.32 0.33 2.64 0.66 4 1 C0.82679218 4.53586014 -1.16743695 6.58578031 -6 7 C-4.02 4.69 -2.04 2.38 0 0 Z " fill="#EBCED7" transform="translate(42,107)"/>-->
    <!--<path d="M0 0 C1.65 0 3.3 0 5 0 C5.33 1.32 5.66 2.64 6 4 C3.36 4 0.72 4 -2 4 C-1.34 2.68 -0.68 1.36 0 0 Z " fill="#E6F3FA" transform="translate(96,108)"/>-->

    <path
        d="M0 0 C0.33 0.66 0.66 1.32 1 2 C1.66 2 2.32 2 3 2 C2.4140625 8.15234375 2.4140625 8.15234375 2 10 C1.01 10.495 1.01 10.495 0 11 C0 7.37 0 3.74 0 0 Z "
        fill="#0E2A60" transform="translate(148,106)" />

    <path
        d="M0 0 C1.32 0 2.64 0 4 0 C3.67 1.65 3.34 3.3 3 5 C2.01 4.67 1.02 4.34 0 4 C0 2.68 0 1.36 0 0 Z "
        fill="#33446F" transform="translate(43,69)" />
    <path
        d="M0 0 C1.2065625 0.0309375 1.2065625 0.0309375 2.4375 0.0625 C2.4375 1.7125 2.4375 3.3625 2.4375 5.0625 C1.4475 5.5575 1.4475 5.5575 0.4375 6.0625 C0.4375 4.7425 0.4375 3.4225 0.4375 2.0625 C-0.8825 1.7325 -2.2025 1.4025 -3.5625 1.0625 C-2.5625 0.0625 -2.5625 0.0625 0 0 Z "
        fill="#2A3C5B" transform="translate(63.5625,64.9375)" />
</svg>
