<svg version="1.1" id="Layer_1" xmlns="http://www.w3.org/2000/svg" x="0px" y="0px" width="100%"
    viewBox="0 0 200 200" enable-background="new 0 0 200 200" xml:space="preserve">
<path fill="#F6F6F6" opacity="1.000000" stroke="none" d="
M176.797363,113.708359 
	C165.431427,129.912949 141.364899,126.828712 134.493423,109.253471 
	C130.411957,98.814232 133.848022,87.310844 142.875259,80.895721 
	C151.751877,74.587631 163.818878,74.999107 172.069366,81.891212 
	C180.597260,89.015045 183.194214,100.718033 178.461609,110.795540 
	C178.039398,111.694603 177.477097,112.527878 176.797363,113.708359 
M144.920395,106.110321 
	C147.437668,111.336296 151.838806,113.741333 157.388351,113.544212 
	C162.559036,113.360542 166.548798,110.687866 168.804749,105.906487 
	C171.274460,100.672035 169.822647,94.202217 165.502274,90.464050 
	C161.099045,86.654190 154.636795,86.133331 149.727997,89.192657 
	C144.396149,92.515610 142.607651,98.197266 144.920395,106.110321 
z" />
    <path fill="#F7F7F7" opacity="1.000000" stroke="none" d="
M32.772011,121.376907 
	C22.466734,114.809868 18.149939,104.377357 21.125563,93.813133 
	C23.993759,83.630302 34.003494,76.225754 44.661293,76.402954 
	C55.292305,76.579704 64.771057,83.736893 67.414238,94.032784 
	C69.851715,103.527435 67.609726,112.051994 60.090706,118.440102 
	C51.977242,125.333252 42.752239,126.189743 32.772011,121.376907 
M39.907848,112.876907 
	C46.172539,114.569321 51.516376,113.159943 55.249660,107.712013 
	C58.336460,103.207489 58.277809,98.298294 55.584850,93.599106 
	C52.850025,88.826851 47.231697,86.403786 41.957863,87.417709 
	C36.575211,88.452545 32.310867,92.675613 31.285816,97.986458 
	C30.157183,103.833977 32.900673,108.919746 39.907848,112.876907 
z" />
    <path fill="#F8F8F8" opacity="1.000000" stroke="none" d="
M87.961479,101.007393 
	C87.961479,96.207855 87.961479,91.906464 87.961479,87.117111 
	C82.620590,87.117111 77.548447,87.117111 72.216110,87.117111 
	C72.216110,83.556725 72.216110,80.473663 72.216110,77.015762 
	C80.887268,77.015762 89.600021,77.015762 98.627808,77.015762 
	C98.627808,92.522224 98.627808,108.042206 98.627808,123.804092 
	C95.183090,123.804092 91.922974,123.804092 87.961479,123.804092 
	C87.961479,116.350388 87.961479,108.927963 87.961479,101.007393 
z" />
    <path fill="#F7F7F7" opacity="1.000000" stroke="none" d="
M103.848709,93.002373 
	C103.848694,87.368607 103.848694,82.234314 103.848694,76.862289 
	C112.286148,76.862289 120.393364,76.862289 128.892670,76.862289 
	C128.892670,79.944031 128.892670,83.162437 128.892670,86.834320 
	C124.448273,86.834320 119.895714,86.834320 114.901566,86.834320 
	C114.901566,99.298637 114.901566,111.333977 114.901566,123.753532 
	C111.108215,123.753532 107.752785,123.753532 103.848732,123.753532 
	C103.848732,113.672432 103.848732,103.587143 103.848709,93.002373 
z" />
</svg>